<?xml version="1.0" standalone="no"?><!DOCTYPE svg PUBLIC "-//W3C//DTD SVG 1.1//EN" "http://www.w3.org/Graphics/SVG/1.1/DTD/svg11.dtd"><svg style="fill:#f4f4f4;" class="icon" height="50" viewBox="0 0 1024 1024" version="1.1" xmlns="http://www.w3.org/2000/svg"><path d="M735.587489 496.190267c-39.908064 83.090637-125.147597 141.520136-225.224743 143.976017-100.077146 2.455881-188.079544-51.880484-231.978415-132.924553C172.269811 554.824423 103.607475 632.389327 105.756371 718.345158c3.376836 138.040971 187.977216 245.588088 412.383331 240.164685 224.406116-5.423404 403.583092-121.77076 400.206256-259.91406-2.148896-85.955831-74.392725-160.041571-182.758469-202.405516zM512 156.153093c-110.821625 0-200.563605 87.90007-200.563605 196.368142s89.844309 196.368142 200.563605 196.368142 200.563605-87.90007 200.563605-196.368142-89.741981-196.368142-200.563605-196.368142zM280.32857 427.937244V246.611372c-2.558209 0-5.116419 0.102328-7.572299 0.306985 41.136005-89.230339 132.719896-151.343659 239.141401-151.343659s198.107725 62.113321 239.141401 151.343659c-2.455881-0.204657-5.01409-0.306985-7.5723-0.306985v181.325872c51.164185 0 92.709503-40.624363 92.709504-90.662936 0-33.973019-19.135405-63.648246-47.480364-79.09983C749.094834 145.920256 640.319776 65.2855 512 65.2855c-128.217448 0-236.992505 80.634756-276.90057 192.786649-28.24263 15.553912-47.480364 45.126811-47.480363 79.099831 0.102328 50.140901 41.545318 90.765264 92.709503 90.765264z" /></svg>