<?xml version="1.0" standalone="no"?><!DOCTYPE svg PUBLIC "-//W3C//DTD SVG 1.1//EN" "http://www.w3.org/Graphics/SVG/1.1/DTD/svg11.dtd"><svg style="fill:#f4f4f4;" class="icon" height="512" viewBox="0 0 1040 1024" version="1.1" xmlns="http://www.w3.org/2000/svg"><path d="M983.062 839.624H664.907l339.32-339.321c21.517-21.537 21.517-56.581 0-78.138L655.813 73.77c-21.536-21.536-56.58-21.515-78.117 0L32.5 618.926c-21.494 21.557-21.516 56.601 0 78.138l142.582 142.56H40.916C18.312 839.624 0 857.937 0 880.519v43.935c0 22.604 18.313 40.895 40.916 40.895H983.06c22.583 0 40.895-18.292 40.895-40.895v-43.935c0.001-22.582-18.312-40.895-40.894-40.895z m-448.008 61.734H304.933l-61.734-61.734-176.62-176.6c-2.751-2.77-2.793-7.267 0-10.06L611.712 107.83c2.793-2.792 7.288-2.75 10.06 0l348.374 348.395c2.772 2.792 2.772 7.247 0.021 10.018l-373.38 373.38-61.734 61.735zM618.837 166.606c-14.371-1.704-27.756 8.479-29.563 22.973l-50.032 397.256L146.77 631.1c-14.535 1.642-24.985 14.74-23.343 29.275 1.52 13.53 12.996 23.508 26.279 23.508 0.985 0 1.991-0.041 2.997-0.144l413.187-46.603c12.175-1.355 21.782-10.88 23.323-22.994l52.597-417.95c1.828-14.516-8.458-27.758-22.973-29.585z" /></svg>