<?xml version="1.0" standalone="no"?><!DOCTYPE svg PUBLIC "-//W3C//DTD SVG 1.1//EN" "http://www.w3.org/Graphics/SVG/1.1/DTD/svg11.dtd"><svg style="fill:#37474F;" class="icon" height="512" viewBox="0 0 1028 1024" version="1.1" xmlns="http://www.w3.org/2000/svg"><path d="M535.176057 46.570242c-12.869528-9.597614-30.4288-9.597614-43.298328 0C40.898924 380.850783 40.898924 418.841339 40.898924 439.308979l0 436.255192c0 60.130507 48.933291 109.063798 109.063798 109.063798l727.091987 0c60.130507 0 109.063798-48.933291 109.063798-109.063798l0-436.255192C986.118507 418.841339 986.118507 380.850783 535.176057 46.570242zM675.97742 653.29215 908.864984 891.741968l-284.111194-202.931374-111.245074 72.491071-111.354138-72.491071-284.038485 202.931374 232.923918-238.449817-281.639081-219.545425 153.270991 60.857599L222.671921 293.890581l581.67359 0 0 200.713743 153.234636-60.857599L675.97742 653.29215zM331.735719 366.59978l363.545994 0 0 72.709199-363.545994 0 0-72.709199ZM331.735719 475.663578l254.482195 0 0 72.709199-254.482195 0 0-72.709199Z" /></svg>