<?xml version="1.0" standalone="no"?><!DOCTYPE svg PUBLIC "-//W3C//DTD SVG 1.1//EN" "http://www.w3.org/Graphics/SVG/1.1/DTD/svg11.dtd"><svg class="icon" height="512" viewBox="0 0 1024 1024" version="1.1" xmlns="http://www.w3.org/2000/svg"><path d="M429 869.3H155.1c-13.8 0-24.9-11.1-24.9-24.9V250.2c0-52.7 42.9-95.5 95.5-95.5h132.7c52.7 0 95.5 42.8 95.5 95.5v594.1c0 13.8-11.2 25-24.9 25z m-249-49.8h224.1V250.2c0-25.2-20.5-45.7-45.7-45.7H225.7c-25.2 0-45.7 20.5-45.7 45.7v569.3zM868.9 869.3H595c-13.8 0-24.9-11.1-24.9-24.9V495c0-52.7 42.8-95.5 95.5-95.5h132.7c52.7 0 95.5 42.8 95.5 95.5v349.3c0.1 13.8-11.1 25-24.9 25z m-249-49.8H844V495c0-25.2-20.5-45.7-45.7-45.7H665.6c-25.2 0-45.7 20.5-45.7 45.7v324.5zM595 511.6H429c-6.9 0-12.5-5.6-12.5-12.5s5.6-12.5 12.5-12.5h166c6.9 0 12.5 5.6 12.5 12.5s-5.6 12.5-12.5 12.5zM339 331.4h-94c-6.9 0-12.5-5.6-12.5-12.5s5.6-12.5 12.5-12.5h94c6.9 0 12.5 5.6 12.5 12.5-0.1 6.9-5.6 12.5-12.5 12.5zM339 436.9h-94c-6.9 0-12.5-5.6-12.5-12.5s5.6-12.5 12.5-12.5h94c6.9 0 12.5 5.6 12.5 12.5-0.1 6.9-5.6 12.5-12.5 12.5zM339 542.4h-94c-6.9 0-12.5-5.6-12.5-12.5s5.6-12.5 12.5-12.5h94c6.9 0 12.5 5.6 12.5 12.5-0.1 7-5.6 12.5-12.5 12.5zM339 648h-94c-6.9 0-12.5-5.6-12.5-12.5S238.1 623 245 623h94c6.9 0 12.5 5.6 12.5 12.5-0.1 6.9-5.6 12.5-12.5 12.5zM339 753.5h-94c-6.9 0-12.5-5.6-12.5-12.5s5.6-12.5 12.5-12.5h94c6.9 0 12.5 5.6 12.5 12.5-0.1 6.9-5.6 12.5-12.5 12.5zM779 542.4h-94c-6.9 0-12.5-5.6-12.5-12.5s5.6-12.5 12.5-12.5h94c6.9 0 12.5 5.6 12.5 12.5-0.1 7-5.7 12.5-12.5 12.5zM779 648h-94c-6.9 0-12.5-5.6-12.5-12.5S678.1 623 685 623h94c6.9 0 12.5 5.6 12.5 12.5-0.1 6.9-5.7 12.5-12.5 12.5zM779 753.5h-94c-6.9 0-12.5-5.6-12.5-12.5s5.6-12.5 12.5-12.5h94c6.9 0 12.5 5.6 12.5 12.5-0.1 6.9-5.7 12.5-12.5 12.5zM595 626.1H429c-6.9 0-12.5-5.6-12.5-12.5s5.6-12.5 12.5-12.5h166c6.9 0 12.5 5.6 12.5 12.5s-5.6 12.5-12.5 12.5zM595 740.6H429c-6.9 0-12.5-5.6-12.5-12.5s5.6-12.5 12.5-12.5h166c6.9 0 12.5 5.6 12.5 12.5s-5.6 12.5-12.5 12.5zM935.2 869.3H88.8c-13.8 0-24.9-11.1-24.9-24.9 0-13.8 11.1-24.9 24.9-24.9h846.3c13.8 0 24.9 11.1 24.9 24.9 0.1 13.7-11.1 24.9-24.8 24.9z" /></svg>