<?xml version="1.0" standalone="no"?><!DOCTYPE svg PUBLIC "-//W3C//DTD SVG 1.1//EN" "http://www.w3.org/Graphics/SVG/1.1/DTD/svg11.dtd"><svg style="fill:#37474F;" class="icon" height="50" viewBox="0 0 1024 1024" version="1.1" xmlns="http://www.w3.org/2000/svg"><path d="M900.3 512v179.2H601.6V512h298.7m59.7-59.7H541.9V751H960V452.3z" fill="" /><path d="M601.6 810.7h298.7v59.7H601.6v-59.7zM482.1 415.7c-2.5 1.7-5.1 2.9-7.9 2.9-9.5 71.8-52.8 125.2-52.8 125.2s0.3 50.4 15.1 53.4c10.1 2 26.7 6.8 45.6 13.9v259.3H64c0-209.8 177.3-263.7 224.7-273 14.8-3 15.1-53.4 15.1-53.4s-43.4-53.4-52.8-125.2c-25.3 0-41.1-76.3-15.7-103.2-1-28.3-32.6-162.1 127.3-162.1 73.1 0 105.2 28.2 119.5 61.3v200.9z" fill="" /></svg>