<?xml version="1.0" standalone="no"?><!DOCTYPE svg PUBLIC "-//W3C//DTD SVG 1.1//EN" "http://www.w3.org/Graphics/SVG/1.1/DTD/svg11.dtd"><svg style="fill:#37474F;" class="icon" height="50" viewBox="0 0 1024 1024" version="1.1" xmlns="http://www.w3.org/2000/svg"><path d="M480.3 330.2h83.2v95.4h54.9V104.2C618.3 82 600.7 64 579 64H190.5c-21.7 0-39.4 18-39.4 40.2v815.7c0 22.2 17.6 40.2 39.4 40.2h139.8V698.8h108.3V480.3c0-23.7 17.1-43.5 41.7-51.1v-99z m0-185.8h83.2v120.5h-83.2V144.4zM290.6 822.1h-83.2V701.5h83.2v120.6z m0-176.5h-83.2V525.1h83.2v120.5z m0-194.9h-83.2V330.2h83.2v120.5z m0-185.8h-83.2V144.4h83.2v120.5z m138.7 380.7h-83.2V525.1h83.2v120.5z m0-194.9h-83.2V330.2h83.2v120.5z m0-185.8h-83.2V144.4h83.2v120.5z m410.2 192.9h-329c-18.4 0-33.4 10.1-33.4 22.5v457.2c0 12.5 14.9 22.5 33.4 22.5h118.4V813.6H724V960h115.6c18.4 0 33.4-10.1 33.4-22.5V480.3c-0.1-12.5-15-22.5-33.5-22.5zM595.3 882.7h-70.4v-67.6h70.4v67.6z m0-98.9h-70.4v-67.6h70.4v67.6z m0-109.3h-70.4V607h70.4v67.5z m0-104.1h-70.4v-67.6h70.4v67.6z m117.5 213.4h-70.4v-67.6h70.4v67.6z m0-109.3h-70.4V607h70.4v67.5z m0-104.1h-70.4v-67.6h70.4v67.6z m113.6 313.8H756v-67.6h70.4v67.6z m0-100.4H756v-67.6h70.4v67.6z m0-109.3H756V607h70.4v67.5z m0-104.1H756v-67.6h70.4v67.6z" fill="" /></svg>