<?xml version="1.0" standalone="no"?><!DOCTYPE svg PUBLIC "-//W3C//DTD SVG 1.1//EN" "http://www.w3.org/Graphics/SVG/1.1/DTD/svg11.dtd"><svg style="fill:#37474F;" class="icon" height="512" viewBox="0 0 1024 1024" version="1.1" xmlns="http://www.w3.org/2000/svg"><path d="M921.6 65.828571H102.4c-27.428571 0-53.028571 10.971429-73.142857 31.085715C10.971429 115.2 0 140.8 0 168.228571v568.685715c0 27.428571 10.971429 53.028571 29.257143 73.142857 20.114286 20.114286 45.714286 31.085714 73.142857 31.085714h51.2v106.057143c0 9.142857 5.485714 16.457143 12.8 21.942857 7.314286 3.657143 18.285714 3.657143 25.6-3.657143l153.6-124.342857h576c56.685714 0 102.4-45.714286 102.4-102.4V168.228571c0-27.428571-10.971429-53.028571-29.257143-73.142857-20.114286-18.285714-45.714286-29.257143-73.142857-29.257143zM186.514286 592.457143c-12.8 0-25.6-7.314286-31.085715-20.114286-5.485714-12.8-1.828571-25.6 7.314286-36.571428 9.142857-9.142857 23.771429-12.8 36.571429-7.314286 12.8 5.485714 20.114286 16.457143 20.114285 31.085714 0 18.285714-14.628571 32.914286-32.914285 32.914286z m0-202.971429c-12.8 0-25.6-7.314286-31.085715-20.114285-5.485714-12.8-1.828571-25.6 7.314286-36.571429 9.142857-9.142857 23.771429-12.8 36.571429-7.314286 12.8 5.485714 20.114286 16.457143 20.114285 31.085715 0 16.457143-14.628571 31.085714-32.914285 32.914285z m685.714285 193.828572H314.514286v-45.714286h557.714285v45.714286z m0-204.8H314.514286v-45.714286h557.714285v45.714286z m0 0" /></svg>