<?xml version="1.0" standalone="no"?><!DOCTYPE svg PUBLIC "-//W3C//DTD SVG 1.1//EN" "http://www.w3.org/Graphics/SVG/1.1/DTD/svg11.dtd"><svg style="fill:#37474F;" class="icon" height="50" viewBox="0 0 1024 1024" version="1.1" xmlns="http://www.w3.org/2000/svg"><path d="M877.714286 0H146.285714C109.714286 0 73.142857 36.571429 73.142857 73.142857v877.714286c0 43.885714 29.257143 73.142857 73.142857 73.142857h731.428572c36.571429 0 73.142857-36.571429 73.142857-73.142857V73.142857c0-43.885714-29.257143-73.142857-73.142857-73.142857zM358.4 760.685714L226.742857 636.342857l51.2-51.2 80.457143 73.142857 138.971429-160.914285 58.514285 51.2-197.485714 212.114285z m0-292.571428L226.742857 343.771429l51.2-51.2 80.457143 73.142857 138.971429-160.914286 58.514285 51.2-197.485714 212.114286zM804.571429 731.428571H585.142857V658.285714h219.428572v73.142857z m0-292.571428H585.142857V365.714286h219.428572v73.142857z" /></svg>